HIERARCHY
ROOT Hips
{
	OFFSET 0.000000 0.000000 0.000000
	CHANNELS 6 Xposition Yposition Zposition Xrotation Yrotation Zrotation
	JOINT LeftUpLeg_virtual
	{
		OFFSET 0.000000 0.000000 0.000000
		CHANNELS 3 Xrotation Yrotation Zrotation
		JOINT LeftUpLeg
		{
			OFFSET 13.026900 -6.336304 -1.092800
			CHANNELS 3 Xrotation Yrotation Zrotation
			JOINT LeftLeg
			{
				OFFSET 0.524474 -46.096886 9.782700
				CHANNELS 3 Xrotation Yrotation Zrotation
				JOINT LeftFoot
				{
					OFFSET -0.524474 -53.427422 -12.948200
					CHANNELS 3 Xrotation Yrotation Zrotation
					JOINT LeftToeBase
					{
						OFFSET 0.192200 -14.009700 16.364100
						CHANNELS 3 Xrotation Yrotation Zrotation
						JOINT LeftToe_End
						{
							OFFSET -1.784700 -0.561700 9.474800
							CHANNELS 3 Xrotation Yrotation Zrotation
							End Site
							{
								OFFSET 0 0 0
							}
						}
					}
				}
			}
		}
	}
	JOINT RightUpLeg_virtual
	{
		OFFSET 0.000000 0.000000 0.000000
		CHANNELS 3 Xrotation Yrotation Zrotation
		JOINT RightUpLeg
		{
			OFFSET -12.883000 -6.336304 -1.092800
			CHANNELS 3 Xrotation Yrotation Zrotation
			JOINT RightLeg
			{
				OFFSET -0.524587 -46.096825 9.782800
				CHANNELS 3 Xrotation Yrotation Zrotation
				JOINT RightFoot
				{
					OFFSET 0.524587 -53.427383 -12.948300
					CHANNELS 3 Xrotation Yrotation Zrotation
					JOINT RightToeBase
					{
						OFFSET -0.192200 -14.009700 16.364100
						CHANNELS 3 Xrotation Yrotation Zrotation
						JOINT RightToe_End
						{
							OFFSET 1.784700 -0.561700 9.474800
							CHANNELS 3 Xrotation Yrotation Zrotation
							End Site
							{
								OFFSET 0 0 0
							}
						}
					}
				}
			}
		}
	}
	JOINT Spine_virtual
	{
		OFFSET 0.000000 0.000000 0.000000
		CHANNELS 3 Xrotation Yrotation Zrotation
		JOINT Spine
		{
			OFFSET 0.072000 7.257294 -0.789700
			CHANNELS 3 Xrotation Yrotation Zrotation
			JOINT Spine1
			{
				OFFSET 0.000000 12.508769 -0.658067
				CHANNELS 3 Xrotation Yrotation Zrotation
				JOINT Spine1_split
				{
					OFFSET 0.000000 12.508769 -0.658067
					CHANNELS 3 Xrotation Yrotation Zrotation
					JOINT Spine2
					{
						OFFSET 0.000000 12.508769 -0.658067
						CHANNELS 3 Xrotation Yrotation Zrotation
						JOINT Neck_virtual
						{
							OFFSET 0.000000 0.000000 0.000000
							CHANNELS 3 Xrotation Yrotation Zrotation
							JOINT Neck
							{
								OFFSET 0.000000 14.033295 7.520400
								CHANNELS 3 Xrotation Yrotation Zrotation
								JOINT Head
								{
									OFFSET 0.000000 8.198502 5.703100
									CHANNELS 3 Xrotation Yrotation Zrotation
									JOINT HeadTop_End
									{
										OFFSET 0.000000 17.760803 13.332701
										CHANNELS 3 Xrotation Yrotation Zrotation
										End Site
										{
											OFFSET 0 0 0
										}
									}
								}
							}
						}
						JOINT LeftShoulder_virtual
						{
							OFFSET 0.000000 0.000000 0.000000
							CHANNELS 3 Xrotation Yrotation Zrotation
							JOINT LeftShoulder
							{
								OFFSET 6.292450 5.785301 -0.669000
								CHANNELS 3 Xrotation Yrotation Zrotation
								JOINT LeftShoulder_split
								{
									OFFSET 6.292450 5.785301 -0.669000
									CHANNELS 3 Xrotation Yrotation Zrotation
									JOINT LeftArm
									{
										OFFSET 13.907140 -6.093903 1.965100
										CHANNELS 3 Xrotation Yrotation Zrotation
										JOINT LeftForeArm
										{
											OFFSET 34.140198 0.000000 0.000000
											CHANNELS 3 Xrotation Yrotation Zrotation
											JOINT LeftHand
											{
												OFFSET 40.960209 0.000000 0.000000
												CHANNELS 3 Xrotation Yrotation Zrotation
												End Site
												{
													OFFSET 0 0 0
												}
											}
										}
									}
								}
							}
						}
						JOINT RightShoulder_virtual
						{
							OFFSET 0.000000 0.000000 0.000000
							CHANNELS 3 Xrotation Yrotation Zrotation
							JOINT RightShoulder
							{
								OFFSET -6.292450 5.785301 -0.669000
								CHANNELS 3 Xrotation Yrotation Zrotation
								JOINT RightShoulder_split
								{
									OFFSET -6.292450 5.785301 -0.669000
									CHANNELS 3 Xrotation Yrotation Zrotation
									JOINT RightArm
									{
										OFFSET -13.907140 -6.093903 1.965100
										CHANNELS 3 Xrotation Yrotation Zrotation
										JOINT RightForeArm
										{
											OFFSET -34.140198 0.000000 0.000000
											CHANNELS 3 Xrotation Yrotation Zrotation
											JOINT RightHand
											{
												OFFSET -40.960209 0.000000 0.000000
												CHANNELS 3 Xrotation Yrotation Zrotation
												End Site
												{
													OFFSET 0 0 0
												}
											}
										}
									}
								}
							}
						}
					}
				}
			}
		}
	}
}
MOTION
Frames: 10
Frame Time: 0.03333333
-0.668806 95.255043 3.840015 0.000000 0.000000 0.000000 8.643249 -47.692243 11.299500 -61.817173 24.238781 33.194310 44.336899 -15.824261 6.899107 6.027393 -0.623948 -14.337730 -2.179421 -2.314084 5.590919 0.000000 0.000000 0.000000 8.470188 -46.239209 11.969288 -30.787887 0.237200 -17.952705 46.720372 7.448172 -5.025340 -15.896312 4.888404 22.460078 7.561839 3.032022 -0.317085 0.000000 0.000000 0.000000 5.718353 -53.994667 10.289730 12.319841 4.527895 -3.722983 4.926290 8.906801 -4.490525 0.079969 -2.567947 -0.086145 0.000000 0.000000 0.000000 -2.190534 7.909580 -2.317264 -0.511528 12.655211 1.282599 -2.021285 16.694671 -2.656245 0.000000 0.000000 0.000000 -5.006367 7.659240 -2.999407 0.597807 -14.797562 -0.764476 6.602285 0.266308 0.853114 -11.765672 2.569066 -44.042419 -24.715999 -36.425078 -15.857068 0.000000 0.000000 0.000000 -5.211962 7.335352 -1.967247 -3.206926 16.470255 1.482087 -2.138092 0.328785 -1.677082 11.181336 -29.345484 59.545043 -26.090704 45.014287 27.298782 0.000000 0.000000 0.000000 
-0.610949 94.589890 2.948479 0.000000 0.000000 0.000000 8.128555 -48.731508 11.215211 -61.432005 22.960239 33.550938 46.395703 -15.975104 7.168149 5.631566 -0.640569 -15.807117 -1.747560 -2.185916 5.375693 0.000000 0.000000 0.000000 8.210185 -46.475851 11.600621 -31.020025 0.398678 -18.387621 47.164850 6.942545 -4.807431 -15.002096 3.630415 21.894327 10.651900 3.061352 -0.229504 0.000000 0.000000 0.000000 4.821764 -54.300325 9.529885 13.149144 4.198951 -3.898882 5.166866 8.863586 -4.481488 -0.232243 -2.944766 0.284423 0.000000 0.000000 0.000000 -2.277295 7.802985 -2.222506 -0.213639 12.378173 1.363201 -1.278450 17.473485 -3.513684 0.000000 0.000000 0.000000 -5.189570 7.634277 -2.950848 0.271198 -13.273086 -0.853398 7.040886 -0.631709 1.197142 -11.062419 2.796514 -43.348342 -24.616391 -36.748006 -15.871338 0.000000 0.000000 0.000000 -5.255746 7.331756 -1.848840 -3.167379 17.563900 0.888809 -1.003643 2.136594 -2.979360 10.720007 -29.177103 60.140410 -26.515897 45.566951 27.320108 0.000000 0.000000 0.000000 
-0.896078 93.239281 2.378559 0.000000 0.000000 0.000000 8.118118 -51.743184 10.951798 -61.299056 20.084530 34.403028 51.358166 -15.139676 7.732842 4.601980 1.222747 -15.867481 -1.316856 -1.647318 4.276325 0.000000 0.000000 0.000000 7.690474 -48.669899 10.559498 -32.822245 2.164422 -18.952651 48.733693 7.493419 -4.999292 -13.178678 2.139535 23.625069 10.913141 3.112436 -0.360985 0.000000 0.000000 0.000000 4.105954 -55.261469 8.033914 14.006251 3.781432 -3.723426 5.368248 8.770872 -4.501329 -0.495774 -3.718299 0.704848 0.000000 0.000000 0.000000 -2.119132 7.648260 -2.212943 0.304972 11.723993 1.288440 -0.578809 18.299434 -4.759978 0.000000 0.000000 0.000000 -5.127125 7.565970 -2.926598 -0.000110 -11.050934 -0.730721 7.474701 -1.964924 1.218132 -9.915311 3.294424 -42.068877 -24.614444 -36.985468 -16.295698 0.000000 0.000000 0.000000 -5.223527 7.216866 -1.827604 -3.277306 18.947184 0.394792 -0.187028 3.604507 -3.434697 9.657210 -27.498208 59.271671 -25.849170 45.902215 25.818455 0.000000 0.000000 0.000000 
-1.465596 91.572464 2.066967 0.000000 0.000000 0.000000 8.436298 -56.184801 10.282734 -60.855107 16.851864 34.980045 57.445299 -13.123480 8.025587 2.186815 4.380176 -13.606388 -1.528740 -0.895659 2.849913 0.000000 0.000000 0.000000 7.366231 -52.099717 9.109731 -35.621602 5.369039 -18.933911 50.883424 8.470456 -5.525591 -11.269575 0.624500 26.227006 8.311778 3.112845 -0.334176 0.000000 0.000000 0.000000 4.204102 -57.006514 6.337763 14.690728 3.403410 -3.201444 5.558838 8.672705 -4.505799 -0.176955 -4.207638 1.399995 0.000000 0.000000 0.000000 -1.745835 7.553668 -2.216498 0.806106 10.681968 1.069848 -0.219469 19.180267 -6.237030 0.000000 0.000000 0.000000 -4.802069 7.520107 -2.868613 -0.208848 -8.514624 -0.519219 7.721607 -3.408767 0.732506 -7.954545 4.197487 -40.308112 -24.655516 -37.104729 -17.003908 0.000000 0.000000 0.000000 -5.039140 7.099201 -1.838545 -3.422799 20.615384 0.145263 -0.022862 4.163028 -2.991345 7.722695 -24.827096 57.351971 -24.231834 45.353713 23.047159 0.000000 0.000000 0.000000 
-2.065540 90.025192 2.398323 0.000000 0.000000 0.000000 8.847942 -61.250637 9.006938 -59.772686 14.152571 34.479915 63.856081 -10.218686 7.632485 -2.170735 7.326306 -8.761482 -2.022383 -0.132656 1.557171 0.000000 0.000000 0.000000 8.000147 -56.575423 7.781097 -38.543109 9.132140 -17.561480 52.513073 8.780014 -5.975915 -10.516890 -1.247884 27.158828 5.338019 3.012063 -0.001967 0.000000 0.000000 0.000000 5.115719 -60.070189 4.765883 15.038760 3.177349 -2.340307 5.783268 8.653381 -4.409399 0.588006 -4.599437 2.075650 0.000000 0.000000 0.000000 -1.217572 7.571767 -2.133176 1.188249 9.375358 0.621833 -0.288664 20.173473 -7.663658 0.000000 0.000000 0.000000 -4.231354 7.562363 -2.697598 -0.344672 -5.896947 -0.463504 7.874957 -4.166939 0.316752 -4.734084 5.499009 -38.628514 -24.501287 -37.346487 -17.750630 0.000000 0.000000 0.000000 -4.709794 7.090999 -1.793853 -3.516262 22.626607 0.166914 -0.005791 3.787059 -1.584711 4.738805 -21.462782 54.675456 -22.122653 43.417931 19.590161 0.000000 0.000000 0.000000 
-2.462693 88.750038 3.418373 0.000000 0.000000 0.000000 9.674010 -66.325098 7.521075 -59.066738 11.821549 32.362194 70.847913 -7.897303 7.012014 -6.003415 7.639107 -4.343276 -2.771362 0.602025 0.819266 0.000000 0.000000 0.000000 10.567850 -61.755401 7.664350 -41.417762 12.754032 -14.809564 53.051725 8.129674 -6.140005 -11.249083 -2.940433 25.497509 3.228854 2.747334 0.504196 0.000000 0.000000 0.000000 7.282782 -64.689138 4.061107 14.868530 3.095465 -1.195666 6.065498 8.740366 -4.093353 0.664566 -4.614208 2.282735 0.000000 0.000000 0.000000 -0.577065 7.706368 -1.868256 1.471227 7.776951 -0.103532 -0.575686 20.942337 -8.697161 0.000000 0.000000 0.000000 -3.526309 7.687493 -2.332608 -0.407955 -3.339789 -0.673203 7.876410 -4.089876 0.174912 0.173915 6.645685 -37.834709 -23.934719 -38.311935 -18.293553 0.000000 0.000000 0.000000 -4.269139 7.168482 -1.596342 -3.530711 25.004440 0.516970 0.069716 2.649822 0.158407 0.914676 -17.408860 51.735753 -19.735478 39.486574 15.937522 0.000000 0.000000 0.000000 
-2.704148 87.899117 4.887566 0.000000 0.000000 0.000000 12.049558 -71.111681 7.115559 -59.013251 9.944009 28.574945 77.777994 -6.981153 6.749296 -7.107159 4.388624 -2.383091 -4.230986 1.202831 0.736431 0.000000 0.000000 0.000000 16.016254 -67.613190 10.071011 -44.645549 15.622007 -11.349156 52.685914 7.233065 -6.074801 -11.712457 -3.339439 23.248697 1.233699 2.328762 0.640532 0.000000 0.000000 0.000000 12.152469 -70.731329 6.012853 14.275710 3.085764 0.102102 6.382236 8.890798 -3.503749 0.157581 -4.261099 2.375744 0.000000 0.000000 0.000000 0.103159 7.894053 -1.364844 1.566301 5.910812 -0.948862 -1.017434 20.717074 -8.841071 0.000000 0.000000 0.000000 -2.822306 7.859261 -1.732209 -0.424967 -1.110663 -1.232361 7.674480 -3.429120 0.428794 6.888013 6.735782 -38.650586 -22.636946 -40.420861 -18.230593 0.000000 0.000000 0.000000 -3.757227 7.262059 -1.194639 -3.506655 27.879796 1.213025 0.236408 1.276747 1.349701 -2.961925 -12.333285 48.879474 -17.293115 33.872380 12.508598 0.000000 0.000000 0.000000 
-2.817683 87.651283 6.225822 0.000000 0.000000 0.000000 19.126265 -76.337637 11.391372 -58.597757 8.360040 22.723264 82.892146 -7.252869 7.169482 -6.321167 -1.508908 -2.844856 -7.954646 1.555553 1.706255 0.000000 0.000000 0.000000 26.989581 -74.338242 18.352068 -48.467787 17.142031 -8.075323 51.717950 7.090445 -5.889027 -9.448342 -1.522357 23.130779 -1.641674 1.794260 -0.051928 0.000000 0.000000 0.000000 24.330409 -77.735708 15.554166 13.428233 3.015712 1.506589 6.662929 8.999538 -2.588365 -0.507346 -3.862332 2.002443 0.000000 0.000000 0.000000 0.676514 8.019393 -0.559469 1.360834 3.670705 -1.776744 -1.671799 18.884681 -7.693108 0.000000 0.000000 0.000000 -2.224109 7.994146 -0.886797 -0.410743 0.694146 -1.959528 7.434801 -2.599134 1.227752 15.116896 4.620876 -41.325062 -20.453638 -43.945198 -17.230112 0.000000 0.000000 0.000000 -3.210025 7.274338 -0.583476 -3.503290 31.171218 2.390866 0.254262 -0.571819 1.956535 -6.007735 -5.447712 46.266803 -14.993457 28.189118 9.667200 0.000000 0.000000 0.000000 
-2.847923 88.321472 6.942604 0.000000 0.000000 0.000000 42.474252 -81.998812 32.499324 -56.646591 6.336013 14.742038 84.567024 -7.816951 7.958232 -6.377300 -7.928158 -4.198983 -13.591389 1.667489 3.297581 0.000000 0.000000 0.000000 54.905056 -80.623608 44.511083 -52.973595 17.192305 -5.581596 49.527378 8.593824 -5.823102 -4.424029 2.878667 26.357360 -5.904941 1.140040 -1.484053 0.000000 0.000000 0.000000 66.243819 -83.099736 55.062338 12.435724 2.778038 2.908940 6.911245 8.930537 -1.389148 -1.087083 -3.355922 1.280179 0.000000 0.000000 0.000000 1.016110 7.925197 0.555933 0.848397 0.862520 -2.211694 -2.601592 14.971500 -5.205064 0.000000 0.000000 0.000000 -1.800256 7.956950 0.144806 -0.380009 1.671947 -2.564227 7.150286 -2.142159 2.145283 23.428717 0.124105 -45.279899 -17.105594 -48.351841 -14.917758 0.000000 0.000000 0.000000 -2.627589 7.120412 0.251627 -3.644178 34.590014 4.028870 -0.326102 -2.710501 2.088150 -7.583982 3.646969 43.608261 -12.785624 24.200243 7.372217 0.000000 0.000000 0.000000 
-2.913027 90.051826 7.932487 0.000000 0.000000 0.000000 108.214690 -83.288720 97.061182 -53.072547 3.561735 6.216899 82.732893 -7.464320 7.923758 -9.628130 -12.047986 -4.342485 -16.759891 1.944863 3.980782 0.000000 0.000000 0.000000 117.947422 -81.097903 106.897207 -57.460933 16.116267 -3.944158 45.501248 11.028166 -5.627840 0.721600 8.605378 30.366208 -10.114453 0.373394 -2.924421 0.000000 0.000000 0.000000 127.722393 -80.430655 114.694258 11.534164 2.364436 4.175041 7.174549 8.590006 0.010663 -1.108847 -2.105627 0.874480 0.000000 0.000000 0.000000 1.044987 7.549523 1.860764 0.313824 -2.676095 -1.884258 -3.879941 8.899690 -1.698895 0.000000 0.000000 0.000000 -1.504924 7.674745 1.281629 -0.318255 1.597040 -2.824174 6.854660 -1.841687 3.073589 30.667631 -6.101495 -49.530923 -12.482626 -53.004816 -11.122594 0.000000 0.000000 0.000000 -2.100271 6.832326 1.312900 -3.949566 37.720396 5.799576 -1.443229 -4.511913 1.846013 -7.533815 14.362578 40.100700 -10.702200 23.598563 5.462311 0.000000 0.000000 0.000000 
